<?xml version="1.0" encoding="UTF-8" standalone="no"?><svg xmlns="http://www.w3.org/2000/svg" xmlns:xlink="http://www.w3.org/1999/xlink" contentScriptType="application/ecmascript" contentStyleType="text/css" height="1429px" preserveAspectRatio="none" style="width:775px;height:1429px;background:#FFFFFF;" version="1.1" viewBox="0 0 775 1429" width="775px" zoomAndPan="magnify"><defs><filter height="300%" id="fvrcddmpzp8i8" width="300%" x="-1" y="-1"><feGaussianBlur result="blurOut" stdDeviation="2.0"/><feColorMatrix in="blurOut" result="blurOut2" type="matrix" values="0 0 0 0 0 0 0 0 0 0 0 0 0 0 0 0 0 0 .4 0"/><feOffset dx="4.0" dy="4.0" in="blurOut2" result="blurOut3"/><feBlend in="SourceGraphic" in2="blurOut3" mode="normal"/></filter></defs><g><rect fill="#FFA500" filter="url(#fvrcddmpzp8i8)" height="36.2969" rx="12.5" ry="12.5" style="stroke:#A80036;stroke-width:1.5;" width="156" x="10" y="695.5625"/><text fill="#000000" font-family="sans-serif" font-size="14" lengthAdjust="spacing" textLength="128" x="20" y="718.5576">Fundamentos PHP</text><rect fill="#00FF00" filter="url(#fvrcddmpzp8i8)" height="36.2969" rx="12.5" ry="12.5" style="stroke:#A80036;stroke-width:1.5;" width="86" x="216" y="301.4844"/><text fill="#000000" font-family="sans-serif" font-size="14" lengthAdjust="spacing" textLength="62" x="226" y="324.4795">Variables</text><rect fill="#008B8B" filter="url(#fvrcddmpzp8i8)" height="36.2969" rx="12.5" ry="12.5" style="stroke:#A80036;stroke-width:1.5;" width="133" x="352" y="188.8906"/><text fill="#000000" font-family="sans-serif" font-size="14" lengthAdjust="spacing" textLength="105" x="362" y="211.8857">Tipos de Datos</text><rect fill="#FF7F50" filter="url(#fvrcddmpzp8i8)" height="36.2969" rx="12.5" ry="12.5" style="stroke:#A80036;stroke-width:1.5;" width="67" x="535" y="20"/><text fill="#000000" font-family="sans-serif" font-size="14" lengthAdjust="spacing" textLength="47" x="545" y="42.9951">Textos</text><path d="M485,207.0391 L495,207.0391 C510,207.0391 510,38.1484 525,38.1484 L535,38.1484 " fill="none" style="stroke:#A80036;stroke-width:1.0;"/><rect fill="#FF7F50" filter="url(#fvrcddmpzp8i8)" height="36.2969" rx="12.5" ry="12.5" style="stroke:#A80036;stroke-width:1.5;" width="87" x="535" y="76.2969"/><text fill="#000000" font-family="sans-serif" font-size="14" lengthAdjust="spacing" textLength="63" x="545" y="99.292">Números</text><path d="M485,207.0391 L495,207.0391 C510,207.0391 510,94.4453 525,94.4453 L535,94.4453 " fill="none" style="stroke:#A80036;stroke-width:1.0;"/><rect fill="#FF7F50" filter="url(#fvrcddmpzp8i8)" height="36.2969" rx="12.5" ry="12.5" style="stroke:#A80036;stroke-width:1.5;" width="114" x="535" y="132.5938"/><text fill="#000000" font-family="sans-serif" font-size="14" lengthAdjust="spacing" textLength="74" x="545" y="155.5889">Booleanos</text><path d="M485,207.0391 L495,207.0391 C510,207.0391 510,150.7422 525,150.7422 L535,150.7422 " fill="none" style="stroke:#A80036;stroke-width:1.0;"/><rect fill="#FF7F50" filter="url(#fvrcddmpzp8i8)" height="36.2969" rx="12.5" ry="12.5" style="stroke:#A80036;stroke-width:1.5;" width="78" x="535" y="188.8906"/><text fill="#000000" font-family="sans-serif" font-size="14" lengthAdjust="spacing" textLength="50" x="545" y="211.8857">Fechas</text><path d="M485,207.0391 L495,207.0391 C510,207.0391 510,207.0391 525,207.0391 L535,207.0391 " fill="none" style="stroke:#A80036;stroke-width:1.0;"/><rect fill="#FF7F50" filter="url(#fvrcddmpzp8i8)" height="36.2969" rx="12.5" ry="12.5" style="stroke:#A80036;stroke-width:1.5;" width="66" x="535" y="273.3359"/><text fill="#000000" font-family="sans-serif" font-size="14" lengthAdjust="spacing" textLength="42" x="545" y="296.3311">Arrays</text><rect fill="#9400D3" filter="url(#fvrcddmpzp8i8)" height="36.2969" rx="12.5" ry="12.5" style="stroke:#A80036;stroke-width:1.5;" width="97" x="651" y="245.1875"/><text fill="#000000" font-family="sans-serif" font-size="14" lengthAdjust="spacing" textLength="73" x="661" y="268.1826">Con índice</text><path d="M601,291.4844 L611,291.4844 C626,291.4844 626,263.3359 641,263.3359 L651,263.3359 " fill="none" style="stroke:#A80036;stroke-width:1.0;"/><rect fill="#9400D3" filter="url(#fvrcddmpzp8i8)" height="36.2969" rx="12.5" ry="12.5" style="stroke:#A80036;stroke-width:1.5;" width="105" x="651" y="301.4844"/><text fill="#000000" font-family="sans-serif" font-size="14" lengthAdjust="spacing" textLength="77" x="661" y="324.4795">Asociativos</text><path d="M601,291.4844 L611,291.4844 C626,291.4844 626,319.6328 641,319.6328 L651,319.6328 " fill="none" style="stroke:#A80036;stroke-width:1.0;"/><path d="M485,207.0391 L495,207.0391 C510,207.0391 510,291.4844 525,291.4844 L535,291.4844 " fill="none" style="stroke:#A80036;stroke-width:1.0;"/><rect fill="#FF7F50" filter="url(#fvrcddmpzp8i8)" height="36.2969" rx="12.5" ry="12.5" style="stroke:#A80036;stroke-width:1.5;" width="78" x="535" y="357.7813"/><text fill="#000000" font-family="sans-serif" font-size="14" lengthAdjust="spacing" textLength="46" x="545" y="380.7764">Clases</text><path d="M485,207.0391 L495,207.0391 C510,207.0391 510,375.9297 525,375.9297 L535,375.9297 " fill="none" style="stroke:#A80036;stroke-width:1.0;"/><path d="M302,319.6328 L312,319.6328 C327,319.6328 327,207.0391 342,207.0391 L352,207.0391 " fill="none" style="stroke:#A80036;stroke-width:1.0;"/><rect fill="#008B8B" filter="url(#fvrcddmpzp8i8)" height="36.2969" rx="12.5" ry="12.5" style="stroke:#A80036;stroke-width:1.5;" width="86" x="352" y="498.5234"/><text fill="#000000" font-family="sans-serif" font-size="14" lengthAdjust="spacing" textLength="54" x="362" y="521.5186">Alcance</text><rect fill="#FF7F50" filter="url(#fvrcddmpzp8i8)" height="36.2969" rx="12.5" ry="12.5" style="stroke:#A80036;stroke-width:1.5;" width="142" x="488" y="414.0781"/><text fill="#000000" font-family="sans-serif" font-size="14" lengthAdjust="spacing" textLength="118" x="498" y="437.0732">Variables Locales</text><path d="M438,516.6719 L448,516.6719 C463,516.6719 463,432.2266 478,432.2266 L488,432.2266 " fill="none" style="stroke:#A80036;stroke-width:1.0;"/><rect fill="#FF7F50" filter="url(#fvrcddmpzp8i8)" height="36.2969" rx="12.5" ry="12.5" style="stroke:#A80036;stroke-width:1.5;" width="150" x="488" y="470.375"/><text fill="#000000" font-family="sans-serif" font-size="14" lengthAdjust="spacing" textLength="126" x="498" y="493.3701">Variables Globales</text><path d="M438,516.6719 L448,516.6719 C463,516.6719 463,488.5234 478,488.5234 L488,488.5234 " fill="none" style="stroke:#A80036;stroke-width:1.0;"/><rect fill="#FF7F50" filter="url(#fvrcddmpzp8i8)" height="36.2969" rx="12.5" ry="12.5" style="stroke:#A80036;stroke-width:1.5;" width="173" x="488" y="526.6719"/><text fill="#000000" font-family="sans-serif" font-size="14" lengthAdjust="spacing" textLength="149" x="498" y="549.667">Variables de Instancia</text><path d="M438,516.6719 L448,516.6719 C463,516.6719 463,544.8203 478,544.8203 L488,544.8203 " fill="none" style="stroke:#A80036;stroke-width:1.0;"/><rect fill="#FF7F50" filter="url(#fvrcddmpzp8i8)" height="36.2969" rx="12.5" ry="12.5" style="stroke:#A80036;stroke-width:1.5;" width="150" x="488" y="582.9688"/><text fill="#000000" font-family="sans-serif" font-size="14" lengthAdjust="spacing" textLength="126" x="498" y="605.9639">Variables de Clase</text><path d="M438,516.6719 L448,516.6719 C463,516.6719 463,601.1172 478,601.1172 L488,601.1172 " fill="none" style="stroke:#A80036;stroke-width:1.0;"/><path d="M302,319.6328 L312,319.6328 C327,319.6328 327,516.6719 342,516.6719 L352,516.6719 " fill="none" style="stroke:#A80036;stroke-width:1.0;"/><path d="M166,713.7109 L176,713.7109 C191,713.7109 191,319.6328 206,319.6328 L216,319.6328 " fill="none" style="stroke:#A80036;stroke-width:1.0;"/><rect fill="#00FF00" filter="url(#fvrcddmpzp8i8)" height="36.2969" rx="12.5" ry="12.5" style="stroke:#A80036;stroke-width:1.5;" width="121" x="216" y="695.5625"/><text fill="#000000" font-family="sans-serif" font-size="14" lengthAdjust="spacing" textLength="97" x="226" y="718.5576">Condicionales</text><rect fill="#008B8B" filter="url(#fvrcddmpzp8i8)" height="36.2969" rx="12.5" ry="12.5" style="stroke:#A80036;stroke-width:1.5;" width="64" x="387" y="639.2656"/><text fill="#000000" font-family="sans-serif" font-size="14" lengthAdjust="spacing" textLength="40" x="397" y="662.2607">if else</text><path d="M337,713.7109 L347,713.7109 C362,713.7109 362,657.4141 377,657.4141 L387,657.4141 " fill="none" style="stroke:#A80036;stroke-width:1.0;"/><rect fill="#008B8B" filter="url(#fvrcddmpzp8i8)" height="36.2969" rx="12.5" ry="12.5" style="stroke:#A80036;stroke-width:1.5;" width="68" x="387" y="695.5625"/><text fill="#000000" font-family="sans-serif" font-size="14" lengthAdjust="spacing" textLength="44" x="397" y="718.5576">switch</text><path d="M337,713.7109 L347,713.7109 C362,713.7109 362,713.7109 377,713.7109 L387,713.7109 " fill="none" style="stroke:#A80036;stroke-width:1.0;"/><rect fill="#008B8B" filter="url(#fvrcddmpzp8i8)" height="36.2969" rx="12.5" ry="12.5" style="stroke:#A80036;stroke-width:1.5;" width="144" x="387" y="751.8594"/><text fill="#000000" font-family="sans-serif" font-size="14" lengthAdjust="spacing" textLength="120" x="397" y="774.8545">operador ternario</text><path d="M337,713.7109 L347,713.7109 C362,713.7109 362,770.0078 377,770.0078 L387,770.0078 " fill="none" style="stroke:#A80036;stroke-width:1.0;"/><path d="M166,713.7109 L176,713.7109 C191,713.7109 191,713.7109 206,713.7109 L216,713.7109 " fill="none" style="stroke:#A80036;stroke-width:1.0;"/><rect fill="#00FF00" filter="url(#fvrcddmpzp8i8)" height="36.2969" rx="12.5" ry="12.5" style="stroke:#A80036;stroke-width:1.5;" width="123" x="216" y="892.6016"/><text fill="#000000" font-family="sans-serif" font-size="14" lengthAdjust="spacing" textLength="103" x="226" y="915.5967">Bucles (Loops)</text><rect fill="#008B8B" filter="url(#fvrcddmpzp8i8)" height="36.2969" rx="12.5" ry="12.5" style="stroke:#A80036;stroke-width:1.5;" width="59" x="389" y="808.1563"/><text fill="#000000" font-family="sans-serif" font-size="14" lengthAdjust="spacing" textLength="35" x="399" y="831.1514">while</text><path d="M339,910.75 L349,910.75 C364,910.75 364,826.3047 379,826.3047 L389,826.3047 " fill="none" style="stroke:#A80036;stroke-width:1.0;"/><rect fill="#008B8B" filter="url(#fvrcddmpzp8i8)" height="36.2969" rx="12.5" ry="12.5" style="stroke:#A80036;stroke-width:1.5;" width="97" x="389" y="864.4531"/><text fill="#000000" font-family="sans-serif" font-size="14" lengthAdjust="spacing" textLength="73" x="399" y="887.4482">do ... while</text><path d="M339,910.75 L349,910.75 C364,910.75 364,882.6016 379,882.6016 L389,882.6016 " fill="none" style="stroke:#A80036;stroke-width:1.0;"/><rect fill="#008B8B" filter="url(#fvrcddmpzp8i8)" height="36.2969" rx="12.5" ry="12.5" style="stroke:#A80036;stroke-width:1.5;" width="38" x="389" y="920.75"/><text fill="#000000" font-family="sans-serif" font-size="14" lengthAdjust="spacing" textLength="18" x="399" y="943.7451">for</text><path d="M339,910.75 L349,910.75 C364,910.75 364,938.8984 379,938.8984 L389,938.8984 " fill="none" style="stroke:#A80036;stroke-width:1.0;"/><rect fill="#008B8B" filter="url(#fvrcddmpzp8i8)" height="36.2969" rx="12.5" ry="12.5" style="stroke:#A80036;stroke-width:1.5;" width="76" x="389" y="977.0469"/><text fill="#000000" font-family="sans-serif" font-size="14" lengthAdjust="spacing" textLength="52" x="399" y="1000.042">foreach</text><path d="M339,910.75 L349,910.75 C364,910.75 364,995.1953 379,995.1953 L389,995.1953 " fill="none" style="stroke:#A80036;stroke-width:1.0;"/><path d="M166,713.7109 L176,713.7109 C191,713.7109 191,910.75 206,910.75 L216,910.75 " fill="none" style="stroke:#A80036;stroke-width:1.0;"/><rect fill="#00FF00" filter="url(#fvrcddmpzp8i8)" height="36.2969" rx="12.5" ry="12.5" style="stroke:#A80036;stroke-width:1.5;" width="100" x="216" y="1033.3438"/><text fill="#000000" font-family="sans-serif" font-size="14" lengthAdjust="spacing" textLength="72" x="226" y="1056.3389">Funciones</text><rect fill="#008B8B" filter="url(#fvrcddmpzp8i8)" height="36.2969" rx="12.5" ry="12.5" style="stroke:#A80036;stroke-width:1.5;" width="107" x="366" y="1033.3438"/><text fill="#000000" font-family="sans-serif" font-size="14" lengthAdjust="spacing" textLength="79" x="376" y="1056.3389">Parámetros</text><path d="M316,1051.4922 L326,1051.4922 C341,1051.4922 341,1051.4922 356,1051.4922 L366,1051.4922 " fill="none" style="stroke:#A80036;stroke-width:1.0;"/><path d="M166,713.7109 L176,713.7109 C191,713.7109 191,1051.4922 206,1051.4922 L216,1051.4922 " fill="none" style="stroke:#A80036;stroke-width:1.0;"/><rect fill="#00FF00" filter="url(#fvrcddmpzp8i8)" height="36.2969" rx="12.5" ry="12.5" style="stroke:#A80036;stroke-width:1.5;" width="59" x="216" y="1174.0859"/><text fill="#000000" font-family="sans-serif" font-size="14" lengthAdjust="spacing" textLength="31" x="226" y="1197.0811">POO</text><rect fill="#008B8B" filter="url(#fvrcddmpzp8i8)" height="36.2969" rx="12.5" ry="12.5" style="stroke:#A80036;stroke-width:1.5;" width="70" x="325" y="1117.7891"/><text fill="#000000" font-family="sans-serif" font-size="14" lengthAdjust="spacing" textLength="46" x="335" y="1140.7842">Clases</text><rect fill="#FF7F50" filter="url(#fvrcddmpzp8i8)" height="36.2969" rx="12.5" ry="12.5" style="stroke:#A80036;stroke-width:1.5;" width="86" x="445" y="1089.6406"/><text fill="#000000" font-family="sans-serif" font-size="14" lengthAdjust="spacing" textLength="62" x="455" y="1112.6357">Atributos</text><path d="M395,1135.9375 L405,1135.9375 C420,1135.9375 420,1107.7891 435,1107.7891 L445,1107.7891 " fill="none" style="stroke:#A80036;stroke-width:1.0;"/><rect fill="#FF7F50" filter="url(#fvrcddmpzp8i8)" height="36.2969" rx="12.5" ry="12.5" style="stroke:#A80036;stroke-width:1.5;" width="85" x="445" y="1145.9375"/><text fill="#000000" font-family="sans-serif" font-size="14" lengthAdjust="spacing" textLength="61" x="455" y="1168.9326">Métodos</text><rect fill="#9400D3" filter="url(#fvrcddmpzp8i8)" height="36.2969" rx="12.5" ry="12.5" style="stroke:#A80036;stroke-width:1.5;" width="111" x="580" y="1145.9375"/><text fill="#000000" font-family="sans-serif" font-size="14" lengthAdjust="spacing" textLength="79" x="590" y="1168.9326">Parámetros</text><path d="M530,1164.0859 L540,1164.0859 C555,1164.0859 555,1164.0859 570,1164.0859 L580,1164.0859 " fill="none" style="stroke:#A80036;stroke-width:1.0;"/><path d="M395,1135.9375 L405,1135.9375 C420,1135.9375 420,1164.0859 435,1164.0859 L445,1164.0859 " fill="none" style="stroke:#A80036;stroke-width:1.0;"/><path d="M275,1192.2344 L285,1192.2344 C300,1192.2344 300,1135.9375 315,1135.9375 L325,1135.9375 " fill="none" style="stroke:#A80036;stroke-width:1.0;"/><rect fill="#008B8B" filter="url(#fvrcddmpzp8i8)" height="36.2969" rx="12.5" ry="12.5" style="stroke:#A80036;stroke-width:1.5;" width="100" x="325" y="1202.2344"/><text fill="#000000" font-family="sans-serif" font-size="14" lengthAdjust="spacing" textLength="68" x="335" y="1225.2295">Interfaces</text><path d="M275,1192.2344 L285,1192.2344 C300,1192.2344 300,1220.3828 315,1220.3828 L325,1220.3828 " fill="none" style="stroke:#A80036;stroke-width:1.0;"/><rect fill="#008B8B" filter="url(#fvrcddmpzp8i8)" height="36.2969" rx="12.5" ry="12.5" style="stroke:#A80036;stroke-width:1.5;" width="89" x="325" y="1258.5313"/><text fill="#000000" font-family="sans-serif" font-size="14" lengthAdjust="spacing" textLength="61" x="335" y="1281.5264">Herencia</text><path d="M275,1192.2344 L285,1192.2344 C300,1192.2344 300,1276.6797 315,1276.6797 L325,1276.6797 " fill="none" style="stroke:#A80036;stroke-width:1.0;"/><path d="M166,713.7109 L176,713.7109 C191,713.7109 191,1192.2344 206,1192.2344 L216,1192.2344 " fill="none" style="stroke:#A80036;stroke-width:1.0;"/><rect fill="#00FF00" filter="url(#fvrcddmpzp8i8)" height="36.2969" rx="12.5" ry="12.5" style="stroke:#A80036;stroke-width:1.5;" width="116" x="216" y="1314.8281"/><text fill="#000000" font-family="sans-serif" font-size="14" lengthAdjust="spacing" textLength="88" x="226" y="1337.8232">Excepciones</text><path d="M166,713.7109 L176,713.7109 C191,713.7109 191,1332.9766 206,1332.9766 L216,1332.9766 " fill="none" style="stroke:#A80036;stroke-width:1.0;"/><rect fill="#00FF00" filter="url(#fvrcddmpzp8i8)" height="36.2969" rx="12.5" ry="12.5" style="stroke:#A80036;stroke-width:1.5;" width="112" x="216" y="1371.125"/><text fill="#000000" font-family="sans-serif" font-size="14" lengthAdjust="spacing" textLength="88" x="226" y="1394.1201">Comentarios</text><path d="M166,713.7109 L176,713.7109 C191,713.7109 191,1389.2734 206,1389.2734 L216,1389.2734 " fill="none" style="stroke:#A80036;stroke-width:1.0;"/><!--MD5=[a7ac115c5336486902711c738e9cb163]
@startmindmap 
*[#Orange] Fundamentos PHP  
**[#Lime] Variables 
***[#DarkCyan] Tipos de Datos  
****[#Coral] Textos
****[#Coral] Números 
****[#Coral] Booleanos     
****[#Coral] Fechas  
****[#Coral] Arrays 
*****[#DarkViolet] Con índice 
*****[#DarkViolet] Asociativos  
****[#Coral] Clases   
***[#DarkCyan] Alcance   
****[#Coral] Variables Locales 
****[#Coral] Variables Globales 
****[#Coral] Variables de Instancia 
****[#Coral] Variables de Clase 
**[#Lime] Condicionales 
***[#DarkCyan] if else 
***[#DarkCyan] switch 
***[#DarkCyan] operador ternario 
**[#Lime] Bucles (Loops)
***[#DarkCyan] while 
***[#DarkCyan] do ... while 
***[#DarkCyan] for
***[#DarkCyan] foreach 
**[#Lime] Funciones  
***[#DarkCyan] Parámetros  
**[#Lime] POO  
***[#DarkCyan] Clases 
****[#Coral] Atributos 
****[#Coral] Métodos 
*****[#DarkViolet] Parámetros   
***[#DarkCyan] Interfaces   
***[#DarkCyan] Herencia  
**[#Lime] Excepciones  
**[#Lime] Comentarios 
@endmindmap 

PlantUML version 1.2022.0(Tue Jan 11 13:16:42 CLST 2022)
(GPL source distribution)
Java Runtime: OpenJDK Runtime Environment
JVM: OpenJDK 64-Bit Server VM
Default Encoding: UTF-8
Language: en
Country: US
--></g></svg>